<svg width="55" height="73" viewBox="0 0 55 73" fill="none" xmlns="http://www.w3.org/2000/svg">
<path d="M53.2812 9.125H41.9661C40.4336 9.125 39.6745 10.9643 40.7487 12.0479L43.1693 14.4574L31.6107 25.9635C28.431 23.9674 24.6641 22.8125 20.625 22.8125C9.23828 22.8125 0 32.0088 0 43.3438C0 54.6787 9.23828 63.875 20.625 63.875C32.0117 63.875 41.25 54.6787 41.25 43.3438C41.25 39.323 40.0898 35.5732 38.0846 32.408L49.6432 20.902L52.0638 23.3115C53.1523 24.3951 55 23.6252 55 22.0996V10.8359C55 9.89492 54.2266 9.125 53.2812 9.125ZM20.625 54.75C14.3086 54.75 9.16667 49.6314 9.16667 43.3438C9.16667 37.0561 14.3086 31.9375 20.625 31.9375C26.9414 31.9375 32.0833 37.0561 32.0833 43.3438C32.0833 49.6314 26.9414 54.75 20.625 54.75Z" fill="#02A4FF"/>
</svg>
