<svg width="45" height="86" viewBox="0 0 45 86" fill="none" xmlns="http://www.w3.org/2000/svg">
<path d="M45 29.5625C45 16.209 34.9219 5.375 22.5 5.375C10.0781 5.375 0 16.209 0 29.5625C0 41.0684 7.48438 50.7098 17.5 53.1453V61.8125H11.875C10.8438 61.8125 10 62.7195 10 63.8281V70.5469C10 71.6555 10.8438 72.5625 11.875 72.5625H17.5V78.6094C17.5 79.718 18.3438 80.625 19.375 80.625H25.625C26.6562 80.625 27.5 79.718 27.5 78.6094V72.5625H33.125C34.1562 72.5625 35 71.6555 35 70.5469V63.8281C35 62.7195 34.1562 61.8125 33.125 61.8125H27.5V53.1453C37.5156 50.7098 45 41.0684 45 29.5625ZM10 29.5625C10 22.1551 15.6094 16.125 22.5 16.125C29.3906 16.125 35 22.1551 35 29.5625C35 36.9699 29.3906 43 22.5 43C15.6094 43 10 36.9699 10 29.5625Z" fill="#FF99D6"/>
</svg>
